<svg id='oil' viewBox="0 0 64 64" xmlns="http://www.w3.org/2000/svg"><path d="m52.188 5.427a6.937 6.937 0 0 0 -6.176-1.1l-19.158 5.673h-1.854v-7a1 1 0 0 0 -1-1h-12a1 1 0 0 0 -1 1v7.184a3 3 0 0 0 -2 2.816v46a3 3 0 0 0 3 3h40a3 3 0 0 0 3-3v-47.964a6.939 6.939 0 0 0 -2.812-5.609zm-29.188-1.427v2h-3v2h3v2h-10v-2h3v-2h-3v-2zm30 55a1 1 0 0 1 -1 1h-40a1 1 0 0 1 -1-1v-46a1 1 0 0 1 1-1h15a1.016 1.016 0 0 0 .284-.041l19.3-5.717a5 5 0 0 1 6.416 4.794z"/><path d="m48 8c-1 0-13.15 3.788-20.3 6.046a1 1 0 0 0 .3 1.954h22a1 1 0 0 0 1-1v-4a3.007 3.007 0 0 0 -3-3zm1 6h-14.46c6.211-1.93 12.728-3.909 13.46-4a1.006 1.006 0 0 1 1 1z"/><path d="m17 6h2v2h-2z"/><path d="m50 18h-36a1 1 0 0 0 -1 1v38a1 1 0 0 0 1 1h36a1 1 0 0 0 1-1v-38a1 1 0 0 0 -1-1zm-1 38h-34v-36h34z"/><path d="m31.816 54h.368a9 9 0 0 0 8.356-12.343l-7.611-19.029a1 1 0 0 0 -1.858 0l-7.611 19.029a9 9 0 0 0 8.356 12.343zm-6.5-11.6 6.684-16.707 6.683 16.707a7 7 0 0 1 -6.5 9.6h-.368a7 7 0 0 1 -6.5-9.6z"/><path d="m19 24h3v-2h-4a1 1 0 0 0 -1 1v4h2z"/><path d="m18 54h4v-2h-3v-3h-2v4a1 1 0 0 0 1 1z"/><path d="m45 27h2v-4a1 1 0 0 0 -1-1h-4v2h3z"/><path d="m47 53v-4h-2v3h-3v2h4a1 1 0 0 0 1-1z"/></svg>